<svg width="1894" height="113" viewBox="0 0 1894 113" fill="none" xmlns="http://www.w3.org/2000/svg">
<path d="M81.1445 109.204L76.5944 94.4917H42.7715L38.0697 109.204H0L42.3165 3.03344H77.8077L120.428 109.204H81.1445ZM70.0725 69.7691L59.7588 40.4964L49.4451 69.7691H70.0725Z" fill="#0C5C38"/>
<path d="M193.596 3.03344H227.267V109.204H198.45L160.987 59.0004V109.204H127.316V3.03344H157.195L193.596 51.1135V3.03344Z" fill="#0C5C38"/>
<path d="M315.17 109.204L310.62 94.4917H276.797L272.095 109.204H234.025L276.342 3.03344H311.833L354.453 109.204H315.17ZM304.098 69.7691L293.784 40.4964L283.47 69.7691H304.098Z" fill="#0C5C38"/>
<path d="M396.491 112.237C382.537 112.237 371.617 109.002 363.73 102.53C355.944 96.0589 352.051 87.0597 352.051 75.5327H389.21C389.21 77.8583 389.868 79.6784 391.182 80.9929C392.497 82.3073 394.266 82.9646 396.491 82.9646C398.513 82.9646 400.131 82.459 401.344 81.4479C402.659 80.3356 403.316 78.8694 403.316 77.0494C403.316 75.7349 402.962 74.6226 402.254 73.7126C401.546 72.7014 400.232 71.7914 398.311 70.9825C396.491 70.1736 394.974 69.6174 393.761 69.3141C392.547 68.9096 390.424 68.303 387.39 67.494C384.458 66.7862 382.234 66.2301 380.717 65.8256C379.301 65.4212 377.178 64.7134 374.347 63.7022C371.515 62.6911 369.291 61.6799 367.673 60.6688C366.156 59.6577 364.336 58.2926 362.213 56.5737C360.191 54.7536 358.623 52.8324 357.511 50.8101C356.399 48.7878 355.438 46.3105 354.629 43.3782C353.82 40.4459 353.416 37.2102 353.416 33.6712C353.416 23.1553 357.107 14.9144 364.488 8.94865C371.97 2.98288 382.385 0 395.732 0C408.877 0 419.09 3.084 426.37 9.25199C433.751 15.3189 437.442 23.7619 437.442 34.5812H401.648C401.648 30.3344 399.676 28.211 395.732 28.211C391.89 28.211 389.969 29.8288 389.969 33.0645C389.969 35.3901 391.182 37.1596 393.609 38.373C396.137 39.5864 400.283 40.9514 406.046 42.4682C409.484 43.3782 412.113 44.1366 413.933 44.7432C415.854 45.2488 418.433 46.1588 421.668 47.4733C424.904 48.6867 427.482 50.1023 429.404 51.7202C431.325 53.2369 433.296 55.1075 435.319 57.332C437.341 59.5565 438.807 62.2866 439.717 65.5223C440.728 68.6569 441.234 72.1959 441.234 76.1393C441.234 87.4642 437.291 96.3117 429.404 102.682C421.517 109.052 410.546 112.237 396.491 112.237Z" fill="#0C5C38"/>
<path d="M537.408 3.03344V33.8229H508.742V109.204H473.251V33.8229H444.585V3.03344H537.408Z" fill="#0C5C38"/>
<path d="M607.553 109.204L603.003 94.4917H569.18L564.478 109.204H526.408L568.725 3.03344H604.216L646.836 109.204H607.553ZM596.481 69.7691L586.167 40.4964L575.854 69.7691H596.481Z" fill="#0C5C38"/>
<path d="M688.874 112.237C674.92 112.237 664 109.002 656.113 102.53C648.327 96.0589 644.434 87.0597 644.434 75.5327H681.594C681.594 77.8583 682.251 79.6784 683.566 80.9929C684.88 82.3073 686.65 82.9646 688.874 82.9646C690.896 82.9646 692.514 82.459 693.728 81.4479C695.042 80.3356 695.699 78.8694 695.699 77.0494C695.699 75.7349 695.345 74.6226 694.638 73.7126C693.93 72.7014 692.615 71.7914 690.694 70.9825C688.874 70.1736 687.357 69.6174 686.144 69.3141C684.931 68.9096 682.807 68.303 679.774 67.494C676.841 66.7862 674.617 66.2301 673.1 65.8256C671.685 65.4212 669.561 64.7134 666.73 63.7022C663.899 62.6911 661.674 61.6799 660.056 60.6688C658.54 59.6577 656.72 58.2926 654.596 56.5737C652.574 54.7536 651.007 52.8324 649.894 50.8101C648.782 48.7878 647.822 46.3105 647.013 43.3782C646.204 40.4459 645.799 37.2102 645.799 33.6712C645.799 23.1553 649.49 14.9144 656.871 8.94865C664.354 2.98288 674.769 0 688.116 0C701.261 0 711.473 3.084 718.753 9.25199C726.135 15.3189 729.826 23.7619 729.826 34.5812H694.031C694.031 30.3344 692.059 28.211 688.116 28.211C684.273 28.211 682.352 29.8288 682.352 33.0645C682.352 35.3901 683.566 37.1596 685.992 38.373C688.52 39.5864 692.666 40.9514 698.429 42.4682C701.867 43.3782 704.496 44.1366 706.316 44.7432C708.238 45.2488 710.816 46.1588 714.052 47.4733C717.287 48.6867 719.866 50.1023 721.787 51.7202C723.708 53.2369 725.68 55.1075 727.702 57.332C729.724 59.5565 731.191 62.2866 732.101 65.5223C733.112 68.6569 733.617 72.1959 733.617 76.1393C733.617 87.4642 729.674 96.3117 721.787 102.682C713.9 109.052 702.929 112.237 688.874 112.237Z" fill="#0C5C38"/>
<path d="M745.409 109.204V3.03344H781.507V109.204H745.409Z" fill="#0C5C38"/>
<path d="M798.138 109.204V3.03344H834.236V109.204H798.138Z" fill="#0C5C38"/>
<path d="M922.154 109.204L917.604 94.4917H883.781L879.079 109.204H841.009L883.326 3.03344H918.817L961.437 109.204H922.154ZM911.082 69.7691L900.768 40.4964L890.454 69.7691H911.082Z" fill="#0C5C38"/>
<path d="M1099 76.291H1136.31V109.204H1047.88V99.8002L1083.22 35.9463H1050.46V3.03344H1134.49V12.4371L1099 76.291Z" fill="#0C5C38"/>
<path d="M1219.28 109.204L1214.73 94.4917H1180.9L1176.2 109.204H1138.13L1180.45 3.03344H1215.94L1258.56 109.204H1219.28ZM1208.2 69.7691L1197.89 40.4964L1187.58 69.7691H1208.2Z" fill="#0C5C38"/>
<path d="M1316 3.03344H1357.41L1315.54 109.204H1283.24L1241.38 3.03344H1282.78L1299.47 59.3038L1316 3.03344Z" fill="#0C5C38"/>
<path d="M1421.31 109.204L1416.76 94.4917H1382.94L1378.23 109.204H1340.16L1382.48 3.03344H1417.97L1460.59 109.204H1421.31ZM1410.24 69.7691L1399.92 40.4964L1389.61 69.7691H1410.24Z" fill="#0C5C38"/>
<path d="M1512.98 3.03344C1529.67 3.03344 1543.16 7.9375 1553.48 17.7456C1563.89 27.5537 1569.1 40.3448 1569.1 56.1186C1569.1 71.7914 1563.89 84.5824 1553.48 94.4917C1543.16 104.3 1529.67 109.204 1512.98 109.204H1467.48V3.03344H1512.98ZM1510.55 77.3527C1517.43 77.3527 1522.89 75.4821 1526.94 71.7409C1530.98 67.8985 1533 62.6911 1533 56.1186C1533 49.5462 1530.98 44.3893 1526.94 40.6481C1522.89 36.8057 1517.43 34.8846 1510.55 34.8846H1502.97V77.3527H1510.55Z" fill="#0C5C38"/>
<path d="M1620.83 112.237C1606.87 112.237 1595.95 109.002 1588.07 102.53C1580.28 96.0589 1576.39 87.0597 1576.39 75.5327H1613.55C1613.55 77.8583 1614.2 79.6784 1615.52 80.9929C1616.83 82.3073 1618.6 82.9646 1620.83 82.9646C1622.85 82.9646 1624.47 82.459 1625.68 81.4479C1627 80.3356 1627.65 78.8694 1627.65 77.0494C1627.65 75.7349 1627.3 74.6226 1626.59 73.7126C1625.88 72.7014 1624.57 71.7914 1622.65 70.9825C1620.83 70.1736 1619.31 69.6174 1618.1 69.3141C1616.88 68.9096 1614.76 68.303 1611.73 67.494C1608.79 66.7862 1606.57 66.2301 1605.05 65.8256C1603.64 65.4212 1601.51 64.7134 1598.68 63.7022C1595.85 62.6911 1593.63 61.6799 1592.01 60.6688C1590.49 59.6577 1588.67 58.2926 1586.55 56.5737C1584.53 54.7536 1582.96 52.8324 1581.85 50.8101C1580.74 48.7878 1579.77 46.3105 1578.97 43.3782C1578.16 40.4459 1577.75 37.2102 1577.75 33.6712C1577.75 23.1553 1581.44 14.9144 1588.82 8.94865C1596.31 2.98288 1606.72 0 1620.07 0C1633.21 0 1643.43 3.084 1650.71 9.25199C1658.09 15.3189 1661.78 23.7619 1661.78 34.5812H1625.98C1625.98 30.3344 1624.01 28.211 1620.07 28.211C1616.23 28.211 1614.31 29.8288 1614.31 33.0645C1614.31 35.3901 1615.52 37.1596 1617.95 38.373C1620.47 39.5864 1624.62 40.9514 1630.38 42.4682C1633.82 43.3782 1636.45 44.1366 1638.27 44.7432C1640.19 45.2488 1642.77 46.1588 1646.01 47.4733C1649.24 48.6867 1651.82 50.1023 1653.74 51.7202C1655.66 53.2369 1657.63 55.1075 1659.66 57.332C1661.68 59.5565 1663.14 62.2866 1664.05 65.5223C1665.07 68.6569 1665.57 72.1959 1665.57 76.1393C1665.57 87.4642 1661.63 96.3117 1653.74 102.682C1645.85 109.052 1634.88 112.237 1620.83 112.237Z" fill="#0C5C38"/>
<path d="M1777.62 109.204H1736.36L1712.55 68.8591V109.204H1677.36V3.03344H1712.55V41.7098L1734.24 3.03344H1775.49L1742.13 55.2086L1777.62 109.204Z" fill="#0C5C38"/>
<path d="M1854.4 109.204L1849.85 94.4917H1816.03L1811.33 109.204H1773.26L1815.58 3.03344H1851.07L1893.69 109.204H1854.4ZM1843.33 69.7691L1833.02 40.4964L1822.7 69.7691H1843.33Z" fill="#0C5C38"/>
</svg>
