<svg width="242" height="241" viewBox="0 0 242 241" fill="none" xmlns="http://www.w3.org/2000/svg">
<path d="M142.237 18.3281C197.323 28.4608 233.681 81.2105 223.549 136.296C213.416 191.382 160.666 227.741 105.581 217.608C50.4949 207.475 14.1362 154.726 24.2689 99.6399C34.4015 44.5542 87.1511 8.19548 142.237 18.3281ZM140.493 27.8084C137.873 27.3264 135.358 29.06 134.875 31.6804L133.13 41.1699C132.648 43.7903 134.382 46.3054 137.002 46.7874C139.622 47.2694 142.137 45.5359 142.619 42.9154L144.365 33.4259C144.847 30.8055 143.113 28.2904 140.493 27.8084ZM196.284 63.9386C195.026 63.7073 193.727 63.9854 192.674 64.7116L184.73 70.1868C182.537 71.699 181.985 74.7026 183.496 76.8962C185.008 79.0895 188.012 79.642 190.206 78.1303L198.149 72.6551C200.342 71.143 200.895 68.1394 199.383 65.9458C198.657 64.8922 197.543 64.1703 196.284 63.9386ZM75.4969 41.7206C74.2413 41.4923 72.9464 41.7709 71.8958 42.4953C69.7025 44.0074 69.15 47.011 70.6616 49.2046L76.1276 57.1464C77.6396 59.3461 80.6504 59.8999 82.8462 58.3823C85.0395 56.8702 85.592 53.8665 84.0804 51.6729L78.5959 43.7277C77.8699 42.6742 76.7552 41.9522 75.4969 41.7206ZM115.198 62.4554C114.397 62.1844 113.538 62.1304 112.708 62.2942C110.094 62.8204 108.403 65.367 108.932 67.9802L119.183 118.919C119.572 120.852 121.097 122.354 123.036 122.713L160.994 129.695C163.614 130.177 166.13 128.443 166.612 125.823C167.094 123.202 165.36 120.687 162.74 120.205L127.997 113.815L118.383 66.0781C118.045 64.3883 116.831 63.0075 115.198 62.4554ZM210.189 128.924L200.699 127.178C198.079 126.696 195.564 128.43 195.082 131.05C194.6 133.671 196.333 136.186 198.954 136.668L208.443 138.413C211.064 138.895 213.579 137.162 214.061 134.541C214.543 131.921 212.809 129.406 210.189 128.924ZM48.8671 99.2497L39.3776 97.5042C36.7572 97.0222 34.2421 98.7557 33.7601 101.376C33.2781 103.997 35.0117 106.512 37.6321 106.994L47.1216 108.739C49.742 109.221 52.2571 107.488 52.7391 104.867C53.2211 102.247 51.4876 99.7317 48.8671 99.2497ZM168.591 176.782C167.333 176.551 166.034 176.829 164.981 177.555C162.794 179.068 162.242 182.064 163.748 184.256L169.222 192.208C170.734 194.402 173.737 194.954 175.931 193.442C178.131 191.93 178.685 188.92 177.167 186.724L171.69 178.79C170.964 177.736 169.849 177.014 168.591 176.782ZM61.2316 157.034C59.9705 156.8 58.668 157.078 57.612 157.806L49.6794 163.273C47.4797 164.785 46.9259 167.796 48.4436 169.992C49.9557 172.179 52.9523 172.73 55.1437 171.224L63.0982 165.742C65.2851 164.229 65.8363 161.233 64.3306 159.042C63.6046 157.988 62.4899 157.266 61.2316 157.034ZM110.817 189.139C108.197 188.657 105.682 190.391 105.2 193.011L103.454 202.501C102.972 205.121 104.706 207.636 107.326 208.118C109.947 208.6 112.462 206.867 112.944 204.246L114.689 194.757C115.171 192.136 113.438 189.621 110.817 189.139Z" fill="url(#paint0_linear_430_144)"/>
<path d="M136.288 23.0929C191.374 33.223 227.735 85.971 217.605 141.057C207.475 196.143 154.727 232.504 99.6408 222.374C44.5547 212.244 8.19351 159.496 18.3236 104.41C28.4537 49.3241 81.2016 12.9628 136.288 23.0929ZM134.544 32.5733C131.924 32.0914 129.409 33.8251 128.927 36.4455L127.182 45.9351C126.7 48.5556 128.434 51.0706 131.054 51.5525C133.675 52.0343 136.19 50.3007 136.672 47.6802L138.417 38.1906C138.898 35.5702 137.165 33.0552 134.544 32.5733ZM190.337 68.7009C189.079 68.4697 187.78 68.7478 186.727 69.4741L178.784 74.9496C176.59 76.4619 176.038 79.4655 177.55 81.6591C179.062 83.8523 182.066 84.4046 184.259 82.8929L192.203 77.4173C194.396 75.9051 194.948 72.9014 193.436 70.7079C192.71 69.6544 191.596 68.9325 190.337 68.7009ZM69.5489 46.4885C68.2933 46.2603 66.9984 46.5389 65.9478 47.2633C63.7546 48.7756 63.2022 51.7792 64.714 53.9728L70.1803 61.9143C71.6924 64.1139 74.7033 64.6676 76.899 63.1499C79.0922 61.6376 79.6446 58.634 78.1328 56.4404L72.648 48.4955C71.922 47.442 70.8072 46.7201 69.5489 46.4885ZM109.251 67.2215C108.45 66.9505 107.59 66.8966 106.761 67.0603C104.147 67.5867 102.456 70.1333 102.985 72.7466L113.239 123.685C113.627 125.618 115.153 127.12 117.092 127.478L155.05 134.459C157.671 134.94 160.186 133.207 160.668 130.586C161.149 127.966 159.416 125.451 156.795 124.969L122.053 118.58L112.436 70.844C112.098 69.1542 110.884 67.7735 109.251 67.2215ZM204.245 133.685L194.755 131.94C192.135 131.458 189.62 133.192 189.138 135.813C188.656 138.433 190.39 140.948 193.01 141.43L202.5 143.175C205.12 143.657 207.635 141.923 208.117 139.303C208.599 136.682 206.865 134.167 204.245 133.685ZM42.9218 104.019L33.4322 102.274C30.8118 101.792 28.2968 103.526 27.8149 106.146C27.333 108.766 29.0667 111.281 31.6871 111.763L41.1767 113.508C43.7972 113.99 46.3122 112.257 46.7941 109.636C47.276 107.016 45.5423 104.501 42.9218 104.019ZM162.649 181.546C161.391 181.315 160.092 181.593 159.039 182.319C156.852 183.831 156.301 186.828 157.807 189.019L163.281 196.972C164.793 199.165 167.797 199.717 169.99 198.206C172.19 196.694 172.743 193.683 171.226 191.487L165.748 183.553C165.022 182.5 163.908 181.778 162.649 181.546ZM55.289 161.803C54.0278 161.569 52.7254 161.846 51.6694 162.574L43.7371 168.042C41.5375 169.555 40.9838 172.565 42.5015 174.761C44.0138 176.948 47.0104 177.499 49.2017 175.993L57.156 170.51C59.3428 168.998 59.8939 166.001 58.3881 163.81C57.662 162.756 56.5473 162.035 55.289 161.803ZM104.876 193.906C102.256 193.424 99.7407 195.157 99.2588 197.778L97.5137 207.267C97.0318 209.888 98.7655 212.403 101.386 212.885C104.006 213.367 106.521 211.633 107.003 209.013L108.748 199.523C109.23 196.902 107.497 194.387 104.876 193.906Z" fill="white" fill-opacity="0.3"/>
<defs>
<linearGradient id="paint0_linear_430_144" x1="24.2689" y1="99.6399" x2="223.549" y2="136.296" gradientUnits="userSpaceOnUse">
<stop stop-color="#0C5C38"/>
<stop offset="0.5" stop-color="#00A45A"/>
<stop offset="1" stop-color="#75DEAF"/>
</linearGradient>
</defs>
</svg>
