<svg width="259" height="237" viewBox="0 0 259 237" fill="none" xmlns="http://www.w3.org/2000/svg">
<path d="M38.5778 221.391L123.495 105.411C108.957 83.7671 109.492 55.2996 124.95 34.1927C134.745 20.8106 149.164 12.046 165.553 9.50683C181.944 6.96738 198.341 10.9577 211.725 20.7488C225.111 30.5377 233.879 44.9418 236.417 61.3242C238.955 77.7101 234.96 94.0953 225.166 107.475C215.378 120.84 200.966 129.605 184.584 132.144C175.623 133.532 166.348 132.932 157.681 130.407L115.855 187.54C115.586 187.909 115.181 188.153 114.731 188.223L102.973 190.081L104.887 202.457C105.033 203.401 104.44 204.63 103.5 204.775L91.5675 206.624L93.2664 217.59C93.3367 218.044 93.1998 218.508 92.9295 218.877L90.814 221.751C87.1553 226.745 82.329 229.836 76.8635 230.682C74.4718 231.053 71.9609 230.992 69.37 230.496L39.6085 224.095C39.0371 223.973 38.5693 223.567 38.3617 223.028C38.1525 222.479 38.2356 221.866 38.5778 221.391ZM175.008 70.903C178.817 73.6871 183.483 74.8232 188.147 74.1006C192.809 73.3782 196.911 70.8838 199.697 67.0779C202.485 63.2717 203.622 58.6075 202.9 53.9469C202.177 49.2846 199.683 45.1847 195.874 42.4006C192.066 39.6128 187.4 38.4784 182.738 39.2008C178.072 39.9236 173.972 42.416 171.184 46.2257C165.43 54.0851 167.145 65.1514 175.008 70.903Z" fill="url(#paint0_linear_430_158)"/>
<path d="M29.5778 221.391L114.495 105.411C99.9569 83.7671 100.492 55.2996 115.95 34.1927C125.745 20.8106 140.164 12.046 156.553 9.50683C172.944 6.96738 189.341 10.9577 202.725 20.7488C216.111 30.5377 224.879 44.9418 227.417 61.3242C229.955 77.7101 225.96 94.0953 216.166 107.475C206.378 120.84 191.966 129.605 175.584 132.144C166.623 133.532 157.348 132.932 148.681 130.407L106.855 187.54C106.586 187.909 106.181 188.153 105.731 188.223L93.9728 190.081L95.8866 202.457C96.0328 203.401 95.4404 204.63 94.5002 204.775L82.5675 206.624L84.2664 217.59C84.3367 218.044 84.1998 218.508 83.9295 218.877L81.814 221.751C78.1553 226.745 73.329 229.836 67.8635 230.682C65.4718 231.053 62.9609 230.992 60.37 230.496L30.6085 224.095C30.0371 223.973 29.5693 223.567 29.3617 223.028C29.1525 222.479 29.2356 221.866 29.5778 221.391ZM166.008 70.903C169.817 73.6871 174.483 74.8232 179.147 74.1006C183.809 73.3782 187.911 70.8838 190.697 67.0779C193.485 63.2717 194.622 58.6075 193.9 53.9469C193.177 49.2846 190.683 45.1847 186.874 42.4006C183.066 39.6128 178.4 38.4784 173.738 39.2008C169.072 39.9236 164.972 42.416 162.184 46.2257C156.43 54.0851 158.145 65.1514 166.008 70.903Z" fill="white" fill-opacity="0.3"/>
<circle cx="176" cy="57" r="22" stroke="white" stroke-opacity="0.3" stroke-width="3"/>
<defs>
<linearGradient id="paint0_linear_430_158" x1="237.036" y1="65.3178" x2="28.0298" y2="166.395" gradientUnits="userSpaceOnUse">
<stop stop-color="#0C5C38"/>
<stop offset="0.5" stop-color="#00A45A"/>
<stop offset="1" stop-color="#75DEAF"/>
</linearGradient>
</defs>
</svg>
