<svg width="242" height="244" viewBox="0 0 242 244" fill="none" xmlns="http://www.w3.org/2000/svg">
<path d="M142.097 175.863C150.131 167.53 157.381 158.659 164.385 148.464C195.636 102.981 179.057 43.1046 179.057 43.1046C179.057 43.1046 117.217 49.1002 85.9666 94.583C78.9622 104.777 73.2805 114.726 68.3833 125.214L24.7244 133.312L8.5601 156.837L55.6544 167.262C54.2353 174.368 54.3846 182.551 55.6114 189.166L86.9788 210.718C93.594 209.491 99.9635 206.941 107.41 202.823L134.03 243.047L150.194 219.522L142.097 175.863ZM125.176 121.523C116.55 115.596 114.341 103.689 120.268 95.0631C126.195 86.4369 138.102 84.2291 146.728 90.1559C155.354 96.0826 157.563 107.99 151.636 116.616C145.709 125.242 133.802 127.45 125.176 121.523Z" fill="url(#paint0_linear_430_130)"/>
<path d="M133.537 175.927C141.571 167.594 148.821 158.723 155.825 148.529C187.076 103.045 170.497 43.1689 170.497 43.1689C170.497 43.1689 108.658 49.1645 77.4068 94.6473C70.4023 104.842 64.7207 114.791 59.8235 125.279L16.1646 133.376L0.000290266 156.902L47.0946 167.326C45.6755 174.432 45.8248 182.616 47.0516 189.23L78.419 210.783C85.0342 209.556 91.4037 207.006 98.8506 202.888L125.47 243.112L141.634 219.586L133.537 175.927ZM116.616 121.588C107.99 115.661 105.781 103.754 111.708 95.1275C117.635 86.5013 129.542 84.2935 138.168 90.2202C146.794 96.1469 149.003 108.054 143.076 116.68C137.149 125.307 125.242 127.515 116.616 121.588Z" fill="white" fill-opacity="0.3"/>
<circle cx="127.331" cy="105.988" r="22.0767" stroke="white" stroke-opacity="0.5" stroke-width="2.02539"/>
<line x1="68.4529" y1="130.289" x2="121.08" y2="169.091" stroke="white" stroke-opacity="0.5" stroke-width="2.22997"/>
<defs>
<linearGradient id="paint0_linear_430_130" x1="60.0311" y1="81.9261" x2="180.985" y2="173.458" gradientUnits="userSpaceOnUse">
<stop stop-color="#75DEAF"/>
<stop offset="0.487963" stop-color="#00A45A"/>
<stop offset="1" stop-color="#0C5C38"/>
</linearGradient>
</defs>
</svg>
