<svg width="201" height="191" viewBox="0 0 201 191" fill="none" xmlns="http://www.w3.org/2000/svg">
<path d="M22.0442 69.9391L13.1603 155.757C12.1874 165.155 19.0863 173.195 28.047 174.123L129.018 184.575L131.02 165.234C132.385 152.048 144.243 142.415 157.429 143.78L187.48 146.89L193.607 87.6994L22.0442 69.9391Z" fill="url(#paint0_linear_430_149)"/>
<path d="M196.042 63.8838C196.993 54.697 190.331 46.4562 181.144 45.5051L175.868 44.9589C175.9 44.6982 175.945 44.4456 175.972 44.1819C177.296 31.3904 172.052 20.7196 164.032 19.8894C156.013 19.0592 148.693 28.4294 147.369 41.2209C147.342 41.4846 147.334 41.741 147.312 42.0028L143.962 41.656C143.994 41.3953 144.039 41.1427 144.066 40.879C145.39 28.0875 140.146 17.4167 132.126 16.5865C124.107 15.7563 116.787 25.1265 115.463 37.918C115.436 38.1817 115.428 38.4381 115.406 38.6999L112.054 38.3529C112.086 38.0922 112.131 37.8396 112.159 37.5759C113.483 24.7844 108.238 14.1136 100.219 13.2834C92.2007 12.4534 84.8814 21.8236 83.5573 34.6151C83.53 34.8788 83.5221 35.1352 83.5004 35.397L80.1482 35.05C80.1806 34.7893 80.2254 34.5367 80.2527 34.273C81.5769 21.4815 76.3322 10.8107 68.3126 9.98046C60.293 9.15027 52.9738 18.5205 51.6496 31.312C51.6223 31.5757 51.6144 31.8321 51.5927 32.0939L42.8779 31.1918C33.6553 30.237 25.4467 36.9385 24.4957 46.1253L22.786 62.6409L194.332 80.3994L196.042 63.8838ZM154.131 41.9209C155.082 32.7346 159.773 26.2831 163.332 26.6515C166.891 27.0199 170.161 34.2955 169.21 43.4819C169.182 43.7509 169.122 43.9927 169.088 44.257L154.092 42.7047C154.113 42.439 154.103 42.1899 154.131 41.9209ZM122.225 38.618C123.176 29.4317 127.867 22.9802 131.426 23.3486C134.985 23.717 138.255 30.9926 137.304 40.179C137.276 40.448 137.216 40.6898 137.182 40.9541L122.186 39.4018C122.207 39.1361 122.197 38.887 122.225 38.618ZM90.3194 35.3151C91.2704 26.1288 95.9596 19.6771 99.5185 20.0455C103.077 20.4139 106.347 27.6895 105.396 36.8759C105.369 37.1449 105.308 37.3867 105.274 37.651L90.2803 36.0989C90.3011 35.8332 90.2916 35.5841 90.3194 35.3151ZM58.4117 32.012C59.3627 22.8257 64.0537 16.3742 67.6126 16.7426C71.1715 17.111 74.4415 24.3866 73.4905 33.573C73.4627 33.842 73.4021 34.0838 73.368 34.3481L58.3728 32.7958C58.3936 32.5301 58.3839 32.281 58.4117 32.012Z" fill="url(#paint1_linear_430_149)"/>
<path d="M138.3 165.994L136.297 185.336L186.72 154.182L156.669 151.071C147.49 150.12 139.25 156.815 138.3 165.994Z" fill="url(#paint2_linear_430_149)"/>
<path d="M10.6208 64.0634L1.73696 149.881C0.764095 159.279 7.66294 167.32 16.6236 168.247L117.594 178.7L119.597 159.358C120.962 146.172 132.82 136.539 146.005 137.904L176.056 141.015L182.184 81.8236L10.6208 64.0634Z" fill="white" fill-opacity="0.3"/>
<path d="M184.619 58.0079C185.57 48.8211 178.908 40.5803 169.721 39.6293L164.445 39.083C164.477 38.8224 164.522 38.5697 164.549 38.3061C165.873 25.5145 160.629 14.8437 152.609 14.0135C144.589 13.1833 137.27 22.5535 135.946 35.3451C135.919 35.6087 135.911 35.8652 135.889 36.127L132.539 35.7801C132.571 35.5195 132.616 35.2668 132.643 35.0031C133.967 22.2116 128.723 11.5408 120.703 10.7106C112.684 9.88041 105.364 19.2506 104.04 32.0421C104.013 32.3058 104.005 32.5623 103.983 32.8241L100.631 32.477C100.663 32.2164 100.708 31.9637 100.735 31.7001C102.06 18.9085 96.8151 8.23771 88.7954 7.40751C80.7776 6.57751 73.4584 15.9477 72.1342 28.7392C72.1069 29.0029 72.099 29.2594 72.0773 29.5212L68.7251 29.1741C68.7575 28.9135 68.8023 28.6608 68.8296 28.3971C70.1538 15.6056 64.9091 4.9348 56.8895 4.10461C48.8699 3.27442 41.5507 12.6446 40.2265 25.4361C40.1992 25.6998 40.1913 25.9563 40.1696 26.2181L31.4548 25.3159C22.2322 24.3612 14.0236 31.0626 13.0726 40.2494L11.3629 56.7651L182.909 74.5236L184.619 58.0079ZM142.708 36.0451C143.659 26.8587 148.35 20.4072 151.909 20.7757C155.468 21.1441 158.738 28.4197 157.787 37.606C157.759 37.875 157.699 38.1168 157.664 38.3812L142.669 36.8289C142.69 36.5632 142.68 36.3141 142.708 36.0451ZM110.802 32.7422C111.753 23.5558 116.444 17.1043 120.003 17.4728C123.562 17.8412 126.832 25.1168 125.881 34.3031C125.853 34.5721 125.793 34.8139 125.759 35.0783L110.763 33.526C110.784 33.2603 110.774 33.0112 110.802 32.7422ZM78.8963 29.4393C79.8473 20.2529 84.5365 13.8012 88.0954 14.1697C91.6544 14.5381 94.9243 21.8137 93.9733 31C93.9455 31.269 93.8849 31.5108 93.8508 31.7752L78.8572 30.223C78.878 29.9573 78.8685 29.7083 78.8963 29.4393ZM46.9886 26.1362C47.9396 16.9498 52.6306 10.4983 56.1895 10.8668C59.7485 11.2352 63.0184 18.5108 62.0674 27.6971C62.0396 27.9661 61.979 28.2079 61.9449 28.4723L46.9497 26.92C46.9705 26.6543 46.9608 26.4052 46.9886 26.1362Z" fill="white" fill-opacity="0.3"/>
<path d="M126.876 160.118L124.874 179.46L175.297 148.306L145.246 145.195C136.067 144.245 127.827 150.939 126.876 160.118Z" fill="white" fill-opacity="0.3"/>
<defs>
<linearGradient id="paint0_linear_430_149" x1="188.321" y1="138.768" x2="16.8502" y2="120.169" gradientUnits="userSpaceOnUse">
<stop stop-color="#0C5C38"/>
<stop offset="0.5" stop-color="#00A45A"/>
<stop offset="1" stop-color="#75DEAF"/>
</linearGradient>
<linearGradient id="paint1_linear_430_149" x1="197.28" y1="51.9262" x2="25.9054" y2="32.654" gradientUnits="userSpaceOnUse">
<stop stop-color="#0C5C38"/>
<stop offset="0.5" stop-color="#00A45A"/>
<stop offset="1" stop-color="#75DEAF"/>
</linearGradient>
<linearGradient id="paint2_linear_430_149" x1="184.863" y1="172.118" x2="138.186" y2="167.107" gradientUnits="userSpaceOnUse">
<stop stop-color="#0C5C38"/>
<stop offset="0.5" stop-color="#00A45A"/>
<stop offset="1" stop-color="#75DEAF"/>
</linearGradient>
</defs>
</svg>
